<?xml version="1.0" encoding="UTF-8" standalone="no"?>
<!DOCTYPE svg PUBLIC "-//W3C//DTD SVG 1.1//EN"
 "http://www.w3.org/Graphics/SVG/1.1/DTD/svg11.dtd">
<!-- Generated by graphviz version 2.38.0 (20140413.2041)
 -->
<!-- Title: test Pages: 1 -->
<svg width="215pt" height="446pt"
 viewBox="0.00 0.00 215.00 446.00" xmlns="http://www.w3.org/2000/svg" xmlns:xlink="http://www.w3.org/1999/xlink">
<g id="graph0" class="graph" transform="scale(1 1) rotate(0) translate(4 442)">
<title>test</title>
<polygon fill="lightgoldenrodyellow" stroke="none" points="-4,4 -4,-442 211,-442 211,4 -4,4"/>
<!-- node1 -->
<g id="node1" class="node"><title>node1</title>
<polygon fill="white" stroke="black" points="0,-376.5 0,-437.5 65,-437.5 65,-376.5 0,-376.5"/>
<text text-anchor="middle" x="32.5" y="-422.3" font-family="Times,serif" font-size="14.00">t_locales</text>
<polyline fill="none" stroke="black" points="0,-414.5 65,-414.5 "/>
<text text-anchor="start" x="8" y="-399.3" font-family="Times,serif" font-size="14.00">&#45; id</text>
<text text-anchor="start" x="8" y="-384.3" font-family="Times,serif" font-size="14.00">&#45; name</text>
</g>
<!-- node4 -->
<g id="node4" class="node"><title>node4</title>
<polygon fill="white" stroke="black" points="29,-218.5 29,-339.5 132,-339.5 132,-218.5 29,-218.5"/>
<text text-anchor="middle" x="80.5" y="-324.3" font-family="Times,serif" font-size="14.00">t_updates</text>
<polyline fill="none" stroke="black" points="29,-316.5 132,-316.5 "/>
<text text-anchor="start" x="37" y="-301.3" font-family="Times,serif" font-size="14.00">&#45; id</text>
<text text-anchor="start" x="37" y="-286.3" font-family="Times,serif" font-size="14.00">&#45; id_component</text>
<text text-anchor="start" x="37" y="-271.3" font-family="Times,serif" font-size="14.00">&#45; id_locale</text>
<text text-anchor="start" x="37" y="-256.3" font-family="Times,serif" font-size="14.00">&#45; date_file</text>
<text text-anchor="start" x="37" y="-241.3" font-family="Times,serif" font-size="14.00">&#45; date_report</text>
<text text-anchor="start" x="37" y="-226.3" font-family="Times,serif" font-size="14.00">&#45; active</text>
</g>
<!-- node1&#45;&gt;node4 -->
<g id="edge2" class="edge"><title>node1&#45;&gt;node4</title>
<path fill="none" stroke="black" d="M43.7539,-376.459C46.9128,-368.166 50.4867,-358.785 54.1342,-349.21"/>
<polygon fill="none" stroke="black" points="57.5043,-350.195 57.7936,-339.604 50.9629,-347.703 57.5043,-350.195"/>
</g>
<!-- node2 -->
<g id="node2" class="node"><title>node2</title>
<polygon fill="white" stroke="black" points="83,-376.5 83,-437.5 176,-437.5 176,-376.5 83,-376.5"/>
<text text-anchor="middle" x="129.5" y="-422.3" font-family="Times,serif" font-size="14.00">t_components</text>
<polyline fill="none" stroke="black" points="83,-414.5 176,-414.5 "/>
<text text-anchor="start" x="91" y="-399.3" font-family="Times,serif" font-size="14.00">&#45; id</text>
<text text-anchor="start" x="91" y="-384.3" font-family="Times,serif" font-size="14.00">&#45; name</text>
</g>
<!-- node2&#45;&gt;node4 -->
<g id="edge1" class="edge"><title>node2&#45;&gt;node4</title>
<path fill="none" stroke="black" d="M118.012,-376.459C114.787,-368.166 111.139,-358.785 107.415,-349.21"/>
<polygon fill="none" stroke="black" points="110.566,-347.656 103.679,-339.604 104.042,-350.193 110.566,-347.656"/>
</g>
<!-- node3 -->
<g id="node3" class="node"><title>node3</title>
<polygon fill="white" stroke="black" points="150,-248.5 150,-309.5 207,-309.5 207,-248.5 150,-248.5"/>
<text text-anchor="middle" x="178.5" y="-294.3" font-family="Times,serif" font-size="14.00">t_states</text>
<polyline fill="none" stroke="black" points="150,-286.5 207,-286.5 "/>
<text text-anchor="start" x="158" y="-271.3" font-family="Times,serif" font-size="14.00">&#45; id</text>
<text text-anchor="start" x="158" y="-256.3" font-family="Times,serif" font-size="14.00">&#45; name</text>
</g>
<!-- node5 -->
<g id="node5" class="node"><title>node5</title>
<polygon fill="white" stroke="black" points="80.5,-0.5 80.5,-181.5 178.5,-181.5 178.5,-0.5 80.5,-0.5"/>
<text text-anchor="middle" x="129.5" y="-166.3" font-family="Times,serif" font-size="14.00">t_stats</text>
<polyline fill="none" stroke="black" points="80.5,-158.5 178.5,-158.5 "/>
<text text-anchor="start" x="88.5" y="-143.3" font-family="Times,serif" font-size="14.00">&#45; id</text>
<text text-anchor="start" x="88.5" y="-128.3" font-family="Times,serif" font-size="14.00">&#45; id_update</text>
<text text-anchor="start" x="88.5" y="-113.3" font-family="Times,serif" font-size="14.00">&#45; id_state</text>
<text text-anchor="start" x="88.5" y="-98.3" font-family="Times,serif" font-size="14.00">&#45; msg</text>
<text text-anchor="start" x="88.5" y="-83.3" font-family="Times,serif" font-size="14.00">&#45; msg_div_tot</text>
<text text-anchor="start" x="88.5" y="-68.3" font-family="Times,serif" font-size="14.00">&#45; w_or</text>
<text text-anchor="start" x="88.5" y="-53.3" font-family="Times,serif" font-size="14.00">&#45; w_div_tot_or</text>
<text text-anchor="start" x="88.5" y="-38.3" font-family="Times,serif" font-size="14.00">&#45; w_tr</text>
<text text-anchor="start" x="88.5" y="-23.3" font-family="Times,serif" font-size="14.00">&#45; ch_or</text>
<text text-anchor="start" x="88.5" y="-8.3" font-family="Times,serif" font-size="14.00">&#45; ch_tr</text>
</g>
<!-- node3&#45;&gt;node5 -->
<g id="edge3" class="edge"><title>node3&#45;&gt;node5</title>
<path fill="none" stroke="black" d="M170.627,-248.116C166.494,-232.425 161.164,-212.194 155.721,-191.532"/>
<polygon fill="none" stroke="black" points="159.063,-190.478 153.13,-181.699 152.293,-192.261 159.063,-190.478"/>
</g>
<!-- node4&#45;&gt;node5 -->
<g id="edge4" class="edge"><title>node4&#45;&gt;node5</title>
<path fill="none" stroke="black" d="M96.2061,-218.381C98.4674,-209.797 100.844,-200.776 103.243,-191.669"/>
<polygon fill="none" stroke="black" points="106.688,-192.332 105.851,-181.77 99.9187,-190.549 106.688,-192.332"/>
</g>
</g>
</svg>
