<?xml version="1.0" encoding="UTF-8" standalone="no"?>
<!DOCTYPE svg PUBLIC "-//W3C//DTD SVG 1.1//EN"
 "http://www.w3.org/Graphics/SVG/1.1/DTD/svg11.dtd">
<!-- Generated by graphviz version 2.38.0 (20140413.2041)
 -->
<!-- Title: test Pages: 1 -->
<svg width="178pt" height="243pt"
 viewBox="0.00 0.00 177.50 243.00" xmlns="http://www.w3.org/2000/svg" xmlns:xlink="http://www.w3.org/1999/xlink">
<g id="graph0" class="graph" transform="scale(1 1) rotate(0) translate(4 239)">
<title>test</title>
<polygon fill="lightgoldenrodyellow" stroke="none" points="-4,4 -4,-239 173.5,-239 173.5,4 -4,4"/>
<!-- node1 -->
<g id="node1" class="node"><title>node1</title>
<polygon fill="white" stroke="black" points="0,-143.5 0,-234.5 86,-234.5 86,-143.5 0,-143.5"/>
<text text-anchor="middle" x="43" y="-219.3" font-family="Times,serif" font-size="14.00">t_projects</text>
<polyline fill="none" stroke="black" points="0,-211.5 86,-211.5 "/>
<text text-anchor="start" x="8" y="-196.3" font-family="Times,serif" font-size="14.00">&#45; id</text>
<text text-anchor="start" x="8" y="-181.3" font-family="Times,serif" font-size="14.00">&#45; project</text>
<text text-anchor="start" x="8" y="-166.3" font-family="Times,serif" font-size="14.00">&#45; date_file</text>
<text text-anchor="start" x="8" y="-151.3" font-family="Times,serif" font-size="14.00">&#45; date_report</text>
</g>
<!-- node3 -->
<g id="node3" class="node"><title>node3</title>
<polygon fill="white" stroke="black" points="47,-0.5 47,-106.5 133,-106.5 133,-0.5 47,-0.5"/>
<text text-anchor="middle" x="90" y="-91.3" font-family="Times,serif" font-size="14.00">t_updates</text>
<polyline fill="none" stroke="black" points="47,-83.5 133,-83.5 "/>
<text text-anchor="start" x="55" y="-68.3" font-family="Times,serif" font-size="14.00">&#45; id</text>
<text text-anchor="start" x="55" y="-53.3" font-family="Times,serif" font-size="14.00">&#45; id_project</text>
<text text-anchor="start" x="55" y="-38.3" font-family="Times,serif" font-size="14.00">&#45; id_locale</text>
<text text-anchor="start" x="55" y="-23.3" font-family="Times,serif" font-size="14.00">&#45; date_file</text>
<text text-anchor="start" x="55" y="-8.3" font-family="Times,serif" font-size="14.00">&#45; date_report</text>
</g>
<!-- node1&#45;&gt;node3 -->
<g id="edge2" class="edge"><title>node1&#45;&gt;node3</title>
<path fill="none" stroke="black" d="M58.7811,-143.175C61.797,-134.608 65.0038,-125.5 68.17,-116.506"/>
<polygon fill="none" stroke="black" points="71.5592,-117.419 71.5787,-106.824 64.9565,-115.094 71.5592,-117.419"/>
</g>
<!-- node2 -->
<g id="node2" class="node"><title>node2</title>
<polygon fill="white" stroke="black" points="104.5,-158.5 104.5,-219.5 169.5,-219.5 169.5,-158.5 104.5,-158.5"/>
<text text-anchor="middle" x="137" y="-204.3" font-family="Times,serif" font-size="14.00">t_locales</text>
<polyline fill="none" stroke="black" points="104.5,-196.5 169.5,-196.5 "/>
<text text-anchor="start" x="112.5" y="-181.3" font-family="Times,serif" font-size="14.00">&#45; id</text>
<text text-anchor="start" x="112.5" y="-166.3" font-family="Times,serif" font-size="14.00">&#45; locale</text>
</g>
<!-- node2&#45;&gt;node3 -->
<g id="edge1" class="edge"><title>node2&#45;&gt;node3</title>
<path fill="none" stroke="black" d="M126.569,-158.372C122.177,-145.895 116.891,-130.881 111.721,-116.196"/>
<polygon fill="none" stroke="black" points="114.972,-114.893 108.35,-106.622 108.37,-117.217 114.972,-114.893"/>
</g>
</g>
</svg>
